Film follows the cool, emotionless Erica, who dives into bed with any man she meets. When she is offered a job in a DIY store in Austin, she discovers the kindness of strangers, but also the gruesome shadowy side of it.




Format                           : Matroska
File size                        : 4.33 GiB
Duration                         : 1h 40mn
Overall bit rate                 : 6 203 Kbps

Video
ID                               : 1
Format                           : AVC
Format/Info                      : Advanced Video Codec
Format profile                   : High@L4.1
Format settings, CABAC           : Yes
Format settings, ReFrames        : 8 frames
Muxing mode                      : Header stripping
Codec ID                         : V_MPEG4/ISO/AVC
Duration                         : 1h 40mn
Bit rate mode                    : Variable
Bit rate                         : 4 695 Kbps
Maximum bit rate                 : 25.0 Mbps
Width                            : 1 280 pixels
Height                           : 544 pixels
Display aspect ratio             : 2.35:1
Frame rate                       : 25.000 fps
Color space                      : YUV
Chroma subsampling               : 4:2:0
Bit depth                        : 8 bits
Scan type                        : Progressive
Bits/(Pixel*Frame)               : 0.270
Stream size                      : 3.19 GiB (74%)
Writing library                  : x264 core 114 r1924 08d04a4


Audio
ID                               : 2
Format                           : DTS
Format/Info                      : Digital Theater Systems
Muxing mode                      : Header stripping
Codec ID                         : A_DTS
Duration                         : 1h 40mn
Bit rate mode                    : Constant
Bit rate                         : 1 510 Kbps
Channel(s)                       : 6 channels
Channel positions                : Front: L C R, Side: L R, LFE
Sampling rate                    : 48.0 KHz
Bit depth                        : 24 bits
Compression mode                 : Lossy
Stream size                      : 1.05 GiB (24%)